<svg width="256" height="256" viewBox="0 0 256 256" fill="none" xmlns="http://www.w3.org/2000/svg">
<g clip-path="url(#clip0_341_321)">
<rect width="256" height="256" fill="white"/>
<path d="M214.23 137.747C215.614 129.821 233.303 130.35 233.304 137.747V141.719C238.594 148.835 245.849 154.529 253.979 159.113C260.943 163.036 268.562 166.197 276.182 168.762V173.694C273.367 172.783 270.528 171.823 267.737 170.764V185.824H276.182V187.821H290.898V181H292.001V255.727H245.304V237.005C245.304 222.898 238.655 216.693 221.602 216.019C204.548 216.693 198.253 222.898 198.041 237.005V255.727H151.062V237.005C151.061 231.003 149.92 226.407 147.264 223.063C143.638 218.632 137.341 216.432 127.677 216.027C110.755 216.737 104.153 222.947 104.152 237.005V255.727H56.96V237.005C56.9598 223.054 50.8064 216.693 33.7529 216.019C16.6996 216.693 10.051 222.898 10.0508 237.005V255.727H-37V187.821H-22V185.808H-14.9385V170.251C-17.268 171.161 -19.6462 172.006 -22 172.817V167.835C-15.327 165.435 -8.72655 162.589 -2.66016 159.13C5.5659 154.43 12.8459 148.604 18.1602 141.273V137.747C19.544 129.821 37.2324 130.35 37.2334 137.747V139.419C50.0701 157.293 74.1179 167.173 100.471 170.863C114.205 172.8 128.596 173.048 142.379 171.906C156.138 170.764 169.266 168.215 180.477 164.525C197.948 158.782 210.809 150.309 214.23 140.148V137.747ZM3.28516 161.48C2.70284 161.827 2.09584 162.192 1.48926 162.523C-1.68945 164.343 -5.01406 166.015 -8.41113 167.537V185.824H3.28516V161.48ZM18.1602 150.044C15.6123 152.626 12.7971 154.976 9.8125 157.16V185.824H18.1602V150.044ZM37.209 185.824H155.021V175.001C151.139 175.564 147.159 176.011 143.155 176.342C142.088 176.408 141.02 176.491 139.928 176.557V185.808H133.4V176.904C128.45 177.087 123.475 177.087 118.477 176.904V185.808H111.949V176.54C107.654 176.242 103.382 175.795 99.1602 175.199C98.3838 175.084 97.6075 174.984 96.8555 174.852V185.791H90.3281V173.71C85.2081 172.717 80.2332 171.476 75.4043 169.987V185.791H68.877V167.802C63.5385 165.833 58.4665 163.515 53.7832 160.851V185.808H47.2559V156.746C43.5918 154.198 40.2179 151.384 37.209 148.306V185.824ZM214.23 151.153C211.61 153.9 208.382 156.466 204.621 158.849V185.808H198.094V162.506C193.629 164.74 188.654 166.76 183.315 168.514L183 168.612V185.808H176.473V170.582C171.717 171.89 166.717 173.015 161.549 173.942V185.824H214.23V151.153ZM249.489 185.824H261.21V168.133C257.303 166.462 253.493 164.591 249.829 162.523L249.489 162.34V185.824ZM233.304 185.808H242.962V158.252C239.492 155.852 236.24 153.238 233.304 150.342V185.808Z" fill="#0042B3"/>
<path fill-rule="evenodd" clip-rule="evenodd" d="M75.9093 33C89.7364 33 101.745 41.3382 107.804 53.5785H102.645C97.0401 44.0886 87.1617 37.7867 75.9093 37.7867C58.445 37.7867 44.2875 52.9639 44.2875 71.6859C44.2875 80.8495 47.6805 89.1627 53.1919 95.2633C52.0013 96.2574 50.7338 97.1506 49.3998 97.9301C43.4557 91.0342 39.8223 81.8158 39.8223 71.6859C39.8223 50.3203 55.979 33 75.9093 33ZM107.708 89.9898C101.618 102.123 89.6625 110.372 75.9093 110.372C74.9756 110.372 74.0502 110.334 73.1344 110.259C75.8415 108.874 78.3793 107.172 80.7073 105.197C89.8613 103.703 97.724 98.0008 102.528 89.9898H107.708Z" fill="#0042B3"/>
<path fill-rule="evenodd" clip-rule="evenodd" d="M55.9982 33C56.9318 33 57.8572 33.0381 58.7731 33.1127C56.066 34.4973 53.5281 36.1995 51.2001 38.1747C36.013 40.6531 24.3763 54.7125 24.3763 71.6859C24.3763 84.3376 30.8426 95.3689 40.4244 101.193C39.011 101.43 37.5623 101.554 36.0866 101.554C34.9872 101.554 33.9034 101.484 32.8373 101.351C24.9366 94.2543 19.9111 83.6001 19.9111 71.6859C19.9111 50.3203 36.0678 33 55.9982 33ZM60.7962 105.197C69.9504 103.703 77.8131 98.0006 82.6166 89.9894H87.7968C81.7068 102.123 69.7516 110.372 55.9982 110.372C55.0645 110.372 54.1391 110.334 53.2232 110.259C55.9302 108.874 58.4684 107.172 60.7962 105.197ZM82.7335 53.5785C79.9491 48.8647 76.1103 44.9373 71.5719 42.1785C72.9854 41.9415 74.4339 41.8176 75.9097 41.8176C77.009 41.8176 78.0929 41.8881 79.159 42.021C82.7209 45.2204 85.6985 49.1432 87.8945 53.5785H82.7335Z" fill="#0042B3"/>
<path fill-rule="evenodd" clip-rule="evenodd" d="M36.0869 33C37.0309 33 37.9662 33.0394 38.892 33.1155C36.1899 34.4982 33.6563 36.1972 31.3321 38.1682C16.1238 40.6271 4.46512 54.6965 4.46512 71.6859C4.46512 90.4078 18.6228 105.585 36.0869 105.585C47.2621 105.585 57.0829 99.3703 62.7072 89.9894H67.8856C61.7956 102.123 49.8404 110.372 36.0869 110.372C16.1567 110.372 0 93.0515 0 71.6859C0 50.3203 16.1567 33 36.0869 33ZM62.8217 53.5785C61.6581 51.609 60.3108 49.7762 58.8049 48.1092C59.9955 47.115 61.2629 46.2215 62.5966 45.442C64.7013 47.8837 66.5159 50.6169 67.9825 53.5785H62.8217Z" fill="#0042B3"/>
<path d="M66.5737 62.5242H74.699V58.0512H53.9102V62.5242H62.0355V85.5164H66.5737V62.5242Z" fill="black"/>
<path d="M81.2184 78.8857H93.333L95.9318 85.5165H100.69L89.4169 57.8552H85.2447L73.9717 85.5165H78.5833L81.2184 78.8857ZM91.6861 74.6087H82.8657L87.2576 63.6227L91.6861 74.6087Z" fill="black"/>
<path d="M108.855 58.0514H104.793V85.5165H123.017V81.1615C118.297 81.1615 113.576 81.1615 108.855 81.1615V58.0514Z" fill="black"/>
<path d="M146.696 58.0514H127.737V85.5165H146.879V81.1615H132.202V73.8241H145.049V69.4691H132.202V62.4066H146.696V58.0514Z" fill="black"/>
<path d="M168.62 67.017C168.62 68.4356 168.144 69.5672 167.187 70.4041C166.235 71.2478 164.948 71.6661 163.331 71.6661H156.725V62.4066H163.295C164.984 62.4066 166.296 62.7924 167.223 63.5704C168.157 64.3422 168.62 65.493 168.62 67.017ZM174 85.5165L167.083 75.1188C167.986 74.8574 168.809 74.4848 169.554 74.0008C170.298 73.5168 170.938 72.9282 171.475 72.2352C172.012 71.5419 172.433 70.7442 172.738 69.842C173.043 68.9395 173.195 67.9127 173.195 66.7617C173.195 65.4277 172.975 64.218 172.536 63.1323C172.097 62.0469 171.469 61.1313 170.652 60.3857C169.834 59.6403 168.834 59.0649 167.65 58.6594C166.467 58.2538 165.143 58.0514 163.679 58.0514H152.26V85.5165H156.725V75.943H162.38L168.693 85.5165H174Z" fill="black"/>
<path d="M218.517 79.9612L218.48 88.541C218.48 88.541 217.298 88.541 216.765 88.541C213.61 88.541 210.982 87.7553 208.879 85.3577C206.776 82.9601 205.725 79.9551 205.725 76.3425C205.725 72.8272 206.783 69.8464 208.9 67.4002C211.031 64.954 213.618 63.731 216.66 63.731C220.052 63.731 222.723 64.8811 224.672 67.1815C226.634 69.4657 227.616 72.5923 227.616 76.5612L227.601 88.541H219.722L219.751 77.2173C219.754 75.9375 219.478 74.9169 218.931 74.1555C218.398 73.3941 217.676 73.0135 216.765 73.0135C215.938 73.0135 215.223 73.3618 214.62 74.0583C214.017 74.7549 213.716 75.5811 213.716 76.5369C213.716 77.5413 213.989 78.3675 214.536 79.0155C215.083 79.6635 215.776 79.9875 216.618 79.9875C217.305 79.9875 218.517 79.9612 218.517 79.9612Z" fill="black"/>
<path d="M256.086 63.5437L256.079 73.0167C256.079 73.0167 254.981 73.0347 254.513 73.0347C253.02 73.0347 252.274 74.3037 252.274 76.8418V88.4828H244.066V75.0847C244.066 71.5704 244.93 68.772 246.656 66.6895C248.382 64.5907 250.687 63.5413 253.569 63.5413C254.213 63.5413 256.086 63.5437 256.086 63.5437Z" fill="black"/>
<path d="M242.198 63.5432L242.199 73.0091C242.199 73.0091 241.124 73.0347 240.656 73.0347C239.164 73.0347 238.418 74.3037 238.418 76.8418V88.4828H230.21V75.0847C230.21 71.5704 231.073 68.772 232.8 66.6895C234.526 64.5907 236.83 63.5413 239.713 63.5413C240.356 63.5413 242.198 63.5432 242.198 63.5432Z" fill="black"/>
<path d="M189.85 55V74.8774C189.85 78.1052 190.85 79.719 192.851 79.719C193.705 79.719 194.425 79.3865 195.013 78.7215C195.615 78.0403 195.915 77.2212 195.915 76.2642C195.915 75.2748 195.636 74.4476 195.076 73.7826C194.516 73.1013 193.831 72.7607 193.019 72.7607C192.445 72.7607 191.104 72.7576 191.104 72.7576L191.046 63.5218C191.046 63.5218 192.669 63.4667 193.145 63.4667C196.097 63.4667 198.623 64.6995 200.722 67.1649C202.835 69.6303 203.891 72.5985 203.891 76.0696C203.891 79.6217 202.694 82.4995 200.68 85.0473C198.684 87.5712 195.333 88.5876 192.788 88.5661C191.221 88.5529 189.689 88.2993 188.192 87.5046C186.708 86.7098 185.484 85.6393 184.519 84.293C182.84 81.9574 182 78.9324 182 75.218V55H189.85Z" fill="black"/>
</g>
<defs>
<clipPath id="clip0_341_321">
<rect width="256" height="256" fill="white"/>
</clipPath>
</defs>
</svg>
